<svg version="1.1" id="Layer_1" xmlns="http://www.w3.org/2000/svg" xmlns:xlink="http://www.w3.org/1999/xlink" x="0px" y="0px"
	 width="100%" viewBox="0 0 454 101" enable-background="new 0 0 454 101" xml:space="preserve">
<path fill="#FDFDFD" opacity="1.000000" stroke="none" 
	d="
M333.000000,102.000000 
	C222.000015,102.000000 111.500023,102.000000 1.000030,102.000000 
	C1.000020,68.333351 1.000020,34.666702 1.000010,1.000039 
	C152.333298,1.000026 303.666595,1.000026 454.999939,1.000013 
	C454.999939,34.666630 454.999939,68.333260 454.999969,101.999939 
	C414.500000,102.000000 374.000000,102.000000 333.000000,102.000000 
M124.274651,39.406494 
	C124.948242,36.583256 125.621834,33.760014 126.369156,30.627750 
	C123.675392,30.093138 121.641670,29.689518 119.305397,29.225853 
	C117.453064,37.424633 115.353485,45.116402 114.039017,52.940079 
	C112.385750,62.780441 118.755020,71.824013 128.187210,73.949615 
	C137.994110,76.159660 147.622177,70.715546 150.356934,60.938747 
	C152.533905,53.155994 154.116837,45.207077 156.110107,36.706646 
	C153.407440,36.391293 151.176987,36.131035 148.110916,35.787430 
	C140.171921,37.255993 132.232925,38.724556 124.274651,39.406494 
M23.193001,39.400120 
	C23.829758,36.566116 24.466513,33.732109 25.174185,30.582481 
	C22.507318,30.102003 20.467735,29.734541 18.089550,29.306074 
	C16.255367,37.574909 14.119266,45.431629 12.841002,53.425522 
	C11.313484,62.978180 17.758959,71.856850 26.994246,73.941330 
	C36.634075,76.117104 46.307266,70.886337 49.026810,61.457996 
	C51.311382,53.537643 52.901165,45.416885 54.954311,36.725471 
	C52.290352,36.401184 50.068085,36.130661 47.027969,35.774891 
	C39.082664,37.245377 31.137362,38.715858 23.193001,39.400120 
M72.737259,29.186617 
	C73.523888,25.316982 74.310509,21.447346 75.170113,17.218721 
	C72.026047,16.549427 69.208855,15.949715 66.053673,15.278053 
	C63.623165,26.123520 60.782661,36.391319 59.118698,46.846375 
	C57.138168,59.290474 65.094711,70.636063 76.965912,73.792091 
	C88.842529,76.949554 101.942329,70.993988 105.827080,59.308895 
	C109.460472,48.379887 111.493149,36.918716 114.369423,25.121208 
	C110.763039,24.668480 107.852776,24.303139 104.120728,23.846603 
	C93.664955,25.904881 83.209190,27.963158 72.737259,29.186617 
M205.449890,23.039387 
	C197.776535,23.157839 192.268692,27.178732 187.864853,32.997208 
	C181.958481,40.800812 179.939178,49.894707 180.451050,59.388325 
	C181.065994,70.794174 185.941376,74.907188 197.408081,74.890320 
	C197.885300,74.889618 198.362778,75.077446 198.967331,75.204086 
	C200.196899,79.406754 201.426407,83.609169 202.759460,88.165489 
	C205.689316,86.274017 208.005905,84.778465 210.456604,83.196327 
	C208.628174,79.366783 207.012665,75.983208 205.533966,72.886162 
	C217.373520,62.301739 219.842072,49.040768 218.371857,34.767288 
	C217.596024,27.235165 214.067032,24.440559 205.449890,23.039387 
M425.663330,34.827801 
	C426.261993,29.380270 426.860657,23.932739 427.486847,18.234610 
	C424.994537,18.234610 422.573578,18.234610 419.886597,18.234610 
	C416.240814,35.443523 412.629547,52.489429 409.034241,69.460060 
	C424.554810,76.418129 439.495514,69.756416 443.798035,54.255798 
	C447.576660,40.642624 440.486816,32.691029 425.663330,34.827801 
M404.622925,50.245644 
	C405.409760,46.510002 406.124908,42.757336 407.006775,39.044266 
	C407.677826,36.218651 406.748840,34.912785 403.877136,34.100113 
	C386.138550,29.080233 371.880280,39.978924 371.839050,58.744965 
	C371.818085,68.292816 379.846985,75.235123 389.334930,73.663956 
	C392.091858,73.207420 394.896484,72.411003 397.381134,71.172394 
	C398.886749,70.421829 400.459290,68.698578 400.894012,67.109322 
	C402.337036,61.834087 403.278137,56.421562 404.622925,50.245644 
M256.764008,56.064964 
	C256.304932,66.634972 260.148468,72.364304 269.481689,73.521507 
	C273.085449,73.968323 276.938721,72.576462 280.654602,71.893326 
	C283.963104,71.285080 285.484528,69.283607 286.100708,65.837883 
	C287.650299,57.172718 289.682434,48.594429 291.468719,39.970463 
	C291.789490,38.421806 291.860168,36.821350 292.031036,35.374294 
	C272.986755,28.730179 259.873779,36.323517 256.764008,56.064964 
M234.613708,66.492287 
	C231.056641,66.252335 229.654892,64.185356 229.898911,60.820263 
	C230.054642,58.672794 230.200806,56.511097 230.575607,54.395523 
	C231.830872,47.309784 233.187027,40.241920 234.519714,33.085823 
	C231.574417,33.085823 229.305145,33.085823 226.513550,33.085823 
	C224.717880,41.634842 222.740463,50.031418 221.292313,58.518314 
	C220.811783,61.334572 220.873398,64.796349 222.109848,67.244438 
	C225.276215,73.513641 231.569717,72.232323 237.134583,72.189018 
	C242.046417,72.150795 247.494751,72.075020 248.920273,66.139481 
	C251.531189,55.268230 253.471191,44.235851 255.736496,33.045670 
	C252.693604,33.045670 250.409348,33.045670 247.832581,33.045670 
	C246.095413,42.137875 244.294617,51.081890 242.710983,60.064198 
	C241.970627,64.263435 240.054733,66.770782 234.613708,66.492287 
M322.236450,75.788406 
	C329.539490,61.690208 336.842560,47.592010 344.193024,33.402309 
	C339.202515,31.986816 336.444733,33.321026 334.741180,37.773903 
	C333.204865,41.789642 330.885651,45.510372 328.855499,49.331367 
	C326.967651,52.884621 325.005646,56.398472 323.076294,59.929676 
	C322.749756,59.797859 322.423218,59.666039 322.096680,59.534222 
	C321.632324,50.829784 321.167999,42.125347 320.695831,33.274178 
	C317.785675,33.274178 315.220337,33.274178 312.219788,33.274178 
	C313.322235,43.149830 314.288574,52.716202 315.487915,62.253277 
	C316.395508,69.470512 315.877655,76.161674 310.628204,81.877388 
	C309.272614,83.353401 308.652649,85.505035 307.590179,87.547386 
	C315.630981,88.570908 315.631134,88.570984 318.934509,82.218979 
	C319.932953,80.299057 320.930389,78.378609 322.236450,75.788406 
M357.429077,72.270470 
	C359.907623,72.270470 362.386200,72.270470 365.093292,72.270470 
	C365.466034,70.551476 365.772430,69.138580 366.218781,67.080223 
	C361.568573,67.080223 357.332733,67.080223 352.674591,67.080223 
	C355.630890,52.468826 358.457947,38.496258 361.355225,24.176544 
	C358.118774,24.176544 355.375366,24.176544 352.321106,24.176544 
	C349.067383,40.115986 345.853271,55.861496 342.503754,72.270470 
	C347.545868,72.270470 351.997925,72.270470 357.429077,72.270470 
M297.044434,48.404205 
	C295.314941,56.831089 293.585449,65.257973 291.786774,74.022095 
	C294.644165,74.022095 297.065247,74.022095 299.947083,74.022095 
	C303.817657,55.360825 307.704529,36.621017 311.604309,17.818935 
	C303.565063,16.967207 303.564911,16.967176 302.161163,23.681839 
	C300.496490,31.644400 298.832123,39.607029 297.044434,48.404205 
z"/>
<path fill="#201C5D" opacity="1.000000" stroke="none" 
	d="
M104.942520,23.937801 
	C107.852776,24.303139 110.763039,24.668480 114.369423,25.121208 
	C111.493149,36.918716 109.460472,48.379887 105.827080,59.308895 
	C101.942329,70.993988 88.842529,76.949554 76.965912,73.792091 
	C65.094711,70.636063 57.138168,59.290474 59.118698,46.846375 
	C60.782661,36.391319 63.623165,26.123520 66.053673,15.278053 
	C69.208855,15.949715 72.026047,16.549427 75.170113,17.218721 
	C74.310509,21.447346 73.523888,25.316982 72.519547,29.888527 
	C71.034630,36.097939 69.248795,41.552277 68.676918,47.131058 
	C68.275116,51.050705 68.691841,55.500008 70.232758,59.069756 
	C72.611076,64.579475 79.868195,67.815872 85.285599,66.611809 
	C90.551292,65.441467 95.259338,63.292213 97.052696,57.002750 
	C94.569908,56.353870 92.414062,56.045238 90.509476,55.182152 
	C89.595695,54.768063 89.157051,53.305477 88.503227,52.317738 
	C89.551331,51.684212 90.629234,50.480671 91.641464,50.533566 
	C93.879677,50.650543 96.084862,51.399502 98.528061,51.940384 
	C99.107071,49.972015 99.561699,48.426498 100.169960,46.358681 
	C98.135803,45.820297 96.293594,45.636108 94.770874,44.840488 
	C93.375053,44.111176 92.324028,42.721973 91.121078,41.623531 
	C92.491135,41.050232 93.833427,40.099415 95.238052,39.996117 
	C97.131119,39.856880 99.072197,40.370346 100.919754,40.594845 
	C103.497169,35.786976 101.240387,34.461990 97.121033,33.808098 
	C95.937767,33.620274 95.003799,31.861973 93.955521,30.823736 
	C95.263565,30.190689 96.537209,29.140379 97.888260,29.028982 
	C99.622849,28.885962 101.419640,29.497332 103.553001,29.842484 
	C104.047539,27.740973 104.495026,25.839386 104.942520,23.937801 
z"/>
<path fill="#261F61" opacity="1.000000" stroke="none" 
	d="
M205.869537,23.048487 
	C214.067032,24.440559 217.596024,27.235165 218.371857,34.767288 
	C219.842072,49.040768 217.373520,62.301739 205.533966,72.886162 
	C207.012665,75.983208 208.628174,79.366783 210.456604,83.196327 
	C208.005905,84.778465 205.689316,86.274017 202.759460,88.165489 
	C201.426407,83.609169 200.196899,79.406754 198.967331,75.204086 
	C198.362778,75.077446 197.885300,74.889618 197.408081,74.890320 
	C185.941376,74.907188 181.065994,70.794174 180.451050,59.388325 
	C179.939178,49.894707 181.958481,40.800812 187.864853,32.997208 
	C192.268692,27.178732 197.776535,23.157839 205.869537,23.048487 
M205.029938,29.431692 
	C202.029068,30.866934 198.123886,31.549601 196.190338,33.873058 
	C189.325714,42.121922 187.575226,52.094742 189.147125,62.508747 
	C190.030548,68.361633 195.511993,70.618309 200.468811,67.284225 
	C202.697678,65.785019 205.101181,63.425850 205.804260,60.989124 
	C207.858047,53.871063 209.504471,46.571838 210.479645,39.233212 
	C210.962387,35.600441 210.173538,31.441172 205.029938,29.431692 
z"/>
<path fill="#03A352" opacity="1.000000" stroke="none" 
	d="
M104.531624,23.892202 
	C104.495026,25.839386 104.047539,27.740973 103.553001,29.842484 
	C101.419640,29.497332 99.622849,28.885962 97.888260,29.028982 
	C96.537209,29.140379 95.263565,30.190689 93.955521,30.823736 
	C95.003799,31.861973 95.937767,33.620274 97.121033,33.808098 
	C101.240387,34.461990 103.497169,35.786976 100.919754,40.594845 
	C99.072197,40.370346 97.131119,39.856880 95.238052,39.996117 
	C93.833427,40.099415 92.491135,41.050232 91.121078,41.623531 
	C92.324028,42.721973 93.375053,44.111176 94.770874,44.840488 
	C96.293594,45.636108 98.135803,45.820297 100.169960,46.358681 
	C99.561699,48.426498 99.107071,49.972015 98.528061,51.940384 
	C96.084862,51.399502 93.879677,50.650543 91.641464,50.533566 
	C90.629234,50.480671 89.551331,51.684212 88.503227,52.317738 
	C89.157051,53.305477 89.595695,54.768063 90.509476,55.182152 
	C92.414062,56.045238 94.569908,56.353870 97.052696,57.002750 
	C95.259338,63.292213 90.551292,65.441467 85.285599,66.611809 
	C79.868195,67.815872 72.611076,64.579475 70.232758,59.069756 
	C68.691841,55.500008 68.275116,51.050705 68.676918,47.131058 
	C69.248795,41.552277 71.034630,36.097939 72.527634,30.305935 
	C83.209190,27.963158 93.664955,25.904881 104.531624,23.892202 
z"/>
<path fill="#0DA857" opacity="1.000000" stroke="none" 
	d="
M426.074707,34.833767 
	C440.486816,32.691029 447.576660,40.642624 443.798035,54.255798 
	C439.495514,69.756416 424.554810,76.418129 409.034241,69.460060 
	C412.629547,52.489429 416.240814,35.443523 419.886597,18.234610 
	C422.573578,18.234610 424.994537,18.234610 427.486847,18.234610 
	C426.860657,23.932739 426.261993,29.380270 426.074707,34.833767 
M426.107605,39.414036 
	C425.082031,40.381947 423.402832,41.197582 423.136169,42.342300 
	C421.308441,50.187222 419.776825,58.101116 418.155518,65.965179 
	C425.164032,67.638954 429.523987,65.996689 432.780823,60.792042 
	C436.599579,54.689384 437.393188,45.718830 433.783325,42.036064 
	C432.180756,40.401157 429.219666,40.097939 426.107605,39.414036 
z"/>
<path fill="#0EA958" opacity="1.000000" stroke="none" 
	d="
M404.517334,50.653671 
	C403.278137,56.421562 402.337036,61.834087 400.894012,67.109322 
	C400.459290,68.698578 398.886749,70.421829 397.381134,71.172394 
	C394.896484,72.411003 392.091858,73.207420 389.334930,73.663956 
	C379.846985,75.235123 371.818085,68.292816 371.839050,58.744965 
	C371.880280,39.978924 386.138550,29.080233 403.877136,34.100113 
	C406.748840,34.912785 407.677826,36.218651 407.006775,39.044266 
	C406.124908,42.757336 405.409760,46.510002 404.517334,50.653671 
M396.031769,51.499439 
	C396.887939,47.225433 397.744141,42.951427 398.611481,38.621777 
	C393.026184,37.328407 388.780853,38.126358 385.612671,41.967678 
	C380.600677,48.044586 379.637817,55.379005 381.304871,62.615284 
	C381.794556,64.740906 386.070221,66.642052 388.939453,67.397331 
	C392.074463,68.222580 393.405762,65.542480 393.878967,62.576397 
	C394.426605,59.143993 395.221191,55.750996 396.031769,51.499439 
z"/>
<path fill="#211E5E" opacity="1.000000" stroke="none" 
	d="
M47.845821,35.860138 
	C50.068085,36.130661 52.290352,36.401184 54.954311,36.725471 
	C52.901165,45.416885 51.311382,53.537643 49.026810,61.457996 
	C46.307266,70.886337 36.634075,76.117104 26.994246,73.941330 
	C17.758959,71.856850 11.313484,62.978180 12.841002,53.425522 
	C14.119266,45.431629 16.255367,37.574909 18.089550,29.306074 
	C20.467735,29.734541 22.507318,30.102003 25.174185,30.582481 
	C24.466513,33.732109 23.829758,36.566116 23.084423,40.157108 
	C21.938225,46.610973 20.404568,52.273964 20.012356,58.014935 
	C19.668724,63.044788 24.308048,67.399780 29.353535,68.061813 
	C35.577457,68.878487 39.461906,66.655136 41.233273,61.260147 
	C40.962437,61.074417 40.696445,60.880222 40.415150,60.711567 
	C38.733253,59.703148 37.047829,58.700619 35.363590,57.696114 
	C37.244629,57.386402 39.157211,57.197437 40.993813,56.717628 
	C41.957367,56.465904 43.557396,55.645901 43.522308,55.185169 
	C43.442795,54.141224 42.764202,52.801033 41.900642,52.234154 
	C40.384789,51.239067 38.547619,50.733448 36.845036,50.022812 
	C37.032497,49.480835 37.219963,48.938862 37.407425,48.396885 
	C39.752407,48.396885 42.097393,48.396885 44.693928,48.396885 
	C45.056519,47.104935 45.396225,45.894527 45.784214,44.512089 
	C44.435986,44.136623 43.193989,44.052185 42.270134,43.466187 
	C41.156822,42.760014 40.313686,41.627903 39.353596,40.680172 
	C40.637245,40.384972 42.007610,39.646847 43.188213,39.877983 
	C46.668465,40.559338 47.692593,38.815895 47.845821,35.860138 
z"/>
<path fill="#251D60" opacity="1.000000" stroke="none" 
	d="
M256.797607,55.655884 
	C259.873779,36.323517 272.986755,28.730179 292.031036,35.374294 
	C291.860168,36.821350 291.789490,38.421806 291.468719,39.970463 
	C289.682434,48.594429 287.650299,57.172718 286.100708,65.837883 
	C285.484528,69.283607 283.963104,71.285080 280.654602,71.893326 
	C276.938721,72.576462 273.085449,73.968323 269.481689,73.521507 
	C260.148468,72.364304 256.304932,66.634972 256.797607,55.655884 
M280.843597,51.326710 
	C281.677551,47.139866 282.511505,42.953022 283.626068,37.357319 
	C279.385773,38.296230 275.757019,38.342163 272.942902,39.879391 
	C266.947754,43.154255 262.656586,57.290855 266.148102,63.143440 
	C267.505707,65.419113 271.361542,66.778191 274.316559,67.369469 
	C277.417786,67.989983 278.125641,64.967804 278.606354,62.416260 
	C279.252167,58.988949 279.973541,55.575878 280.843597,51.326710 
z"/>
<path fill="#201E5E" opacity="1.000000" stroke="none" 
	d="
M148.946548,35.870781 
	C151.176987,36.131035 153.407440,36.391293 156.110107,36.706646 
	C154.116837,45.207077 152.533905,53.155994 150.356934,60.938747 
	C147.622177,70.715546 137.994110,76.159660 128.187210,73.949615 
	C118.755020,71.824013 112.385750,62.780441 114.039017,52.940079 
	C115.353485,45.116402 117.453064,37.424633 119.305397,29.225853 
	C121.641670,29.689518 123.675392,30.093138 126.369156,30.627750 
	C125.621834,33.760014 124.948242,36.583256 124.164307,40.162209 
	C123.003860,46.434547 121.504349,51.913437 121.036995,57.478996 
	C120.615929,62.493301 125.020348,67.132034 129.856125,68.004738 
	C135.995056,69.112633 140.218765,66.927528 142.598053,61.279095 
	C141.856781,60.952465 141.055450,60.710934 140.377274,60.276936 
	C139.032776,59.416496 137.756226,58.449856 136.451599,57.527107 
	C138.053436,57.203896 139.683151,56.977367 141.248169,56.526398 
	C142.465958,56.175491 143.603180,55.545006 144.776215,55.038773 
	C143.820526,54.008125 142.900284,52.941433 141.898911,51.957264 
	C140.951324,51.025944 139.918594,50.181240 138.923309,49.298439 
	C140.188614,48.877636 141.549866,47.928703 142.700714,48.137817 
	C145.807190,48.702286 147.062592,47.772957 146.660217,44.440434 
	C145.551239,44.067657 144.354355,43.880173 143.407516,43.290924 
	C142.304413,42.604427 141.420013,41.566498 140.440720,40.681065 
	C141.719498,40.385864 143.083572,39.650360 144.260971,39.878452 
	C147.721222,40.548786 148.756454,38.804722 148.946548,35.870781 
z"/>
<path fill="#251E60" opacity="1.000000" stroke="none" 
	d="
M235.057373,66.513824 
	C240.054733,66.770782 241.970627,64.263435 242.710983,60.064198 
	C244.294617,51.081890 246.095413,42.137875 247.832581,33.045670 
	C250.409348,33.045670 252.693604,33.045670 255.736496,33.045670 
	C253.471191,44.235851 251.531189,55.268230 248.920273,66.139481 
	C247.494751,72.075020 242.046417,72.150795 237.134583,72.189018 
	C231.569717,72.232323 225.276215,73.513641 222.109848,67.244438 
	C220.873398,64.796349 220.811783,61.334572 221.292313,58.518314 
	C222.740463,50.031418 224.717880,41.634842 226.513550,33.085823 
	C229.305145,33.085823 231.574417,33.085823 234.519714,33.085823 
	C233.187027,40.241920 231.830872,47.309784 230.575607,54.395523 
	C230.200806,56.511097 230.054642,58.672794 229.898911,60.820263 
	C229.654892,64.185356 231.056641,66.252335 235.057373,66.513824 
z"/>
<path fill="#261F61" opacity="1.000000" stroke="none" 
	d="
M322.082397,76.123398 
	C320.930389,78.378609 319.932953,80.299057 318.934509,82.218979 
	C315.631134,88.570984 315.630981,88.570908 307.590179,87.547386 
	C308.652649,85.505035 309.272614,83.353401 310.628204,81.877388 
	C315.877655,76.161674 316.395508,69.470512 315.487915,62.253277 
	C314.288574,52.716202 313.322235,43.149830 312.219788,33.274178 
	C315.220337,33.274178 317.785675,33.274178 320.695831,33.274178 
	C321.167999,42.125347 321.632324,50.829784 322.096680,59.534222 
	C322.423218,59.666039 322.749756,59.797859 323.076294,59.929676 
	C325.005646,56.398472 326.967651,52.884621 328.855499,49.331367 
	C330.885651,45.510372 333.204865,41.789642 334.741180,37.773903 
	C336.444733,33.321026 339.202515,31.986816 344.193024,33.402309 
	C336.842560,47.592010 329.539490,61.690208 322.082397,76.123398 
z"/>
<path fill="#04A252" opacity="1.000000" stroke="none" 
	d="
M148.528732,35.829105 
	C148.756454,38.804722 147.721222,40.548786 144.260971,39.878452 
	C143.083572,39.650360 141.719498,40.385864 140.440720,40.681065 
	C141.420013,41.566498 142.304413,42.604427 143.407516,43.290924 
	C144.354355,43.880173 145.551239,44.067657 146.660217,44.440434 
	C147.062592,47.772957 145.807190,48.702286 142.700714,48.137817 
	C141.549866,47.928703 140.188614,48.877636 138.923309,49.298439 
	C139.918594,50.181240 140.951324,51.025944 141.898911,51.957264 
	C142.900284,52.941433 143.820526,54.008125 144.776215,55.038773 
	C143.603180,55.545006 142.465958,56.175491 141.248169,56.526398 
	C139.683151,56.977367 138.053436,57.203896 136.451599,57.527107 
	C137.756226,58.449856 139.032776,59.416496 140.377274,60.276936 
	C141.055450,60.710934 141.856781,60.952465 142.598053,61.279095 
	C140.218765,66.927528 135.995056,69.112633 129.856125,68.004738 
	C125.020348,67.132034 120.615929,62.493301 121.036995,57.478996 
	C121.504349,51.913437 123.003860,46.434547 124.173943,40.555523 
	C132.232925,38.724556 140.171921,37.255993 148.528732,35.829105 
z"/>
<path fill="#04A252" opacity="1.000000" stroke="none" 
	d="
M47.436897,35.817513 
	C47.692593,38.815895 46.668465,40.559338 43.188213,39.877983 
	C42.007610,39.646847 40.637245,40.384972 39.353596,40.680172 
	C40.313686,41.627903 41.156822,42.760014 42.270134,43.466187 
	C43.193989,44.052185 44.435986,44.136623 45.784214,44.512089 
	C45.396225,45.894527 45.056519,47.104935 44.693928,48.396885 
	C42.097393,48.396885 39.752407,48.396885 37.407425,48.396885 
	C37.219963,48.938862 37.032497,49.480835 36.845036,50.022812 
	C38.547619,50.733448 40.384789,51.239067 41.900642,52.234154 
	C42.764202,52.801033 43.442795,54.141224 43.522308,55.185169 
	C43.557396,55.645901 41.957367,56.465904 40.993813,56.717628 
	C39.157211,57.197437 37.244629,57.386402 35.363590,57.696114 
	C37.047829,58.700619 38.733253,59.703148 40.415150,60.711567 
	C40.696445,60.880222 40.962437,61.074417 41.233273,61.260147 
	C39.461906,66.655136 35.577457,68.878487 29.353535,68.061813 
	C24.308048,67.399780 19.668724,63.044788 20.012356,58.014935 
	C20.404568,52.273964 21.938225,46.610973 23.083950,40.550217 
	C31.137362,38.715858 39.082664,37.245377 47.436897,35.817513 
z"/>
<path fill="#0BA856" opacity="1.000000" stroke="none" 
	d="
M356.939545,72.270470 
	C351.997925,72.270470 347.545868,72.270470 342.503754,72.270470 
	C345.853271,55.861496 349.067383,40.115986 352.321106,24.176544 
	C355.375366,24.176544 358.118774,24.176544 361.355225,24.176544 
	C358.457947,38.496258 355.630890,52.468826 352.674591,67.080223 
	C357.332733,67.080223 361.568573,67.080223 366.218781,67.080223 
	C365.772430,69.138580 365.466034,70.551476 365.093292,72.270470 
	C362.386200,72.270470 359.907623,72.270470 356.939545,72.270470 
z"/>
<path fill="#261F61" opacity="1.000000" stroke="none" 
	d="
M297.106018,47.986916 
	C298.832123,39.607029 300.496490,31.644400 302.161163,23.681839 
	C303.564911,16.967176 303.565063,16.967207 311.604309,17.818935 
	C307.704529,36.621017 303.817657,55.360825 299.947083,74.022095 
	C297.065247,74.022095 294.644165,74.022095 291.786774,74.022095 
	C293.585449,65.257973 295.314941,56.831089 297.106018,47.986916 
z"/>
<path fill="#F9F9FA" opacity="1.000000" stroke="none" 
	d="
M205.386063,29.557884 
	C210.173538,31.441172 210.962387,35.600441 210.479645,39.233212 
	C209.504471,46.571838 207.858047,53.871063 205.804260,60.989124 
	C205.101181,63.425850 202.697678,65.785019 200.468811,67.284225 
	C195.511993,70.618309 190.030548,68.361633 189.147125,62.508747 
	C187.575226,52.094742 189.325714,42.121922 196.190338,33.873058 
	C198.123886,31.549601 202.029068,30.866934 205.386063,29.557884 
z"/>
<path fill="#F4FBF8" opacity="1.000000" stroke="none" 
	d="
M426.491394,39.302139 
	C429.219666,40.097939 432.180756,40.401157 433.783325,42.036064 
	C437.393188,45.718830 436.599579,54.689384 432.780823,60.792042 
	C429.523987,65.996689 425.164032,67.638954 418.155518,65.965179 
	C419.776825,58.101116 421.308441,50.187222 423.136169,42.342300 
	C423.402832,41.197582 425.082031,40.381947 426.491394,39.302139 
z"/>
<path fill="#F6FCF9" opacity="1.000000" stroke="none" 
	d="
M395.970154,51.920166 
	C395.221191,55.750996 394.426605,59.143993 393.878967,62.576397 
	C393.405762,65.542480 392.074463,68.222580 388.939453,67.397331 
	C386.070221,66.642052 381.794556,64.740906 381.304871,62.615284 
	C379.637817,55.379005 380.600677,48.044586 385.612671,41.967678 
	C388.780853,38.126358 393.026184,37.328407 398.611481,38.621777 
	C397.744141,42.951427 396.887939,47.225433 395.970154,51.920166 
z"/>
<path fill="#F7F7F9" opacity="1.000000" stroke="none" 
	d="
M280.753052,51.741699 
	C279.973541,55.575878 279.252167,58.988949 278.606354,62.416260 
	C278.125641,64.967804 277.417786,67.989983 274.316559,67.369469 
	C271.361542,66.778191 267.505707,65.419113 266.148102,63.143440 
	C262.656586,57.290855 266.947754,43.154255 272.942902,39.879391 
	C275.757019,38.342163 279.385773,38.296230 283.626068,37.357319 
	C282.511505,42.953022 281.677551,47.139866 280.753052,51.741699 
z"/>
</svg>